<mxfile host="app.diagrams.net" modified="2023-09-05T01:58:50.196Z" agent="Mozilla/5.0 (Macintosh; Intel Mac OS X 10_15_7) AppleWebKit/537.36 (KHTML, like Gecko) Chrome/115.0.0.0 Safari/537.36" etag="WYhOa4hKFt6Wbhi3kQt0" version="21.7.1" type="github">
  <diagram name="Page-1" id="h0mL1t7hVGqQzZSweprh">
    <mxGraphModel dx="2790" dy="1345" grid="1" gridSize="10" guides="1" tooltips="1" connect="1" arrows="1" fold="1" page="1" pageScale="1" pageWidth="827" pageHeight="1169" math="0" shadow="0">
      <root>
        <mxCell id="0" />
        <mxCell id="1" parent="0" />
        <mxCell id="xPHiqMeXsOjvFi-vwVRh-1" value="segment" style="swimlane;fontStyle=0;childLayout=stackLayout;horizontal=1;startSize=40;horizontalStack=0;resizeParent=1;resizeParentMax=0;resizeLast=0;collapsible=1;marginBottom=0;whiteSpace=wrap;html=1;rounded=0;" vertex="1" parent="1">
          <mxGeometry x="480" y="320" width="200" height="560" as="geometry">
            <mxRectangle x="240" y="320" width="120" height="40" as="alternateBounds" />
          </mxGeometry>
        </mxCell>
        <mxCell id="xPHiqMeXsOjvFi-vwVRh-2" value="filename &lt;i&gt;string&lt;/i&gt;" style="text;html=1;strokeColor=none;fillColor=white;align=left;verticalAlign=middle;whiteSpace=wrap;rounded=0;" vertex="1" parent="xPHiqMeXsOjvFi-vwVRh-1">
          <mxGeometry y="40" width="200" height="40" as="geometry" />
        </mxCell>
        <mxCell id="xPHiqMeXsOjvFi-vwVRh-5" value="status (&#39;Incomplete&#39; / &#39;Complete&#39;) set by label==&#39;unknown&#39;" style="text;html=1;strokeColor=none;fillColor=white;align=left;verticalAlign=middle;whiteSpace=wrap;rounded=0;" vertex="1" parent="xPHiqMeXsOjvFi-vwVRh-1">
          <mxGeometry y="80" width="200" height="40" as="geometry" />
        </mxCell>
        <mxCell id="xPHiqMeXsOjvFi-vwVRh-6" value="validation &lt;i&gt;bool&lt;/i&gt; (false)" style="text;html=1;strokeColor=none;fillColor=white;align=left;verticalAlign=middle;whiteSpace=wrap;rounded=0;" vertex="1" parent="xPHiqMeXsOjvFi-vwVRh-1">
          <mxGeometry y="120" width="200" height="40" as="geometry" />
        </mxCell>
        <mxCell id="xPHiqMeXsOjvFi-vwVRh-7" value="start &lt;i&gt;number&lt;/i&gt;" style="text;html=1;strokeColor=none;fillColor=white;align=left;verticalAlign=middle;whiteSpace=wrap;rounded=0;" vertex="1" parent="xPHiqMeXsOjvFi-vwVRh-1">
          <mxGeometry y="160" width="200" height="40" as="geometry" />
        </mxCell>
        <mxCell id="xPHiqMeXsOjvFi-vwVRh-8" value="end &lt;i&gt;number&lt;/i&gt;" style="text;html=1;strokeColor=none;fillColor=white;align=left;verticalAlign=middle;whiteSpace=wrap;rounded=0;" vertex="1" parent="xPHiqMeXsOjvFi-vwVRh-1">
          <mxGeometry y="200" width="200" height="40" as="geometry" />
        </mxCell>
        <mxCell id="xPHiqMeXsOjvFi-vwVRh-9" value="confidence &lt;i&gt;number&lt;/i&gt;" style="text;html=1;strokeColor=none;fillColor=white;align=left;verticalAlign=middle;whiteSpace=wrap;rounded=0;" vertex="1" parent="xPHiqMeXsOjvFi-vwVRh-1">
          <mxGeometry y="240" width="200" height="40" as="geometry" />
        </mxCell>
        <mxCell id="xPHiqMeXsOjvFi-vwVRh-10" value="label &lt;i&gt;string&lt;/i&gt;&amp;nbsp;" style="text;html=1;strokeColor=none;fillColor=white;align=left;verticalAlign=middle;whiteSpace=wrap;rounded=0;" vertex="1" parent="xPHiqMeXsOjvFi-vwVRh-1">
          <mxGeometry y="280" width="200" height="40" as="geometry" />
        </mxCell>
        <mxCell id="xPHiqMeXsOjvFi-vwVRh-11" value="cluster &lt;i&gt;number&lt;/i&gt;&amp;nbsp;(1)" style="text;html=1;strokeColor=none;fillColor=white;align=left;verticalAlign=middle;whiteSpace=wrap;rounded=0;" vertex="1" parent="xPHiqMeXsOjvFi-vwVRh-1">
          <mxGeometry y="320" width="200" height="40" as="geometry" />
        </mxCell>
        <mxCell id="xPHiqMeXsOjvFi-vwVRh-12" value="x &lt;i&gt;number&lt;/i&gt;" style="text;html=1;strokeColor=none;fillColor=white;align=left;verticalAlign=middle;whiteSpace=wrap;rounded=0;" vertex="1" parent="xPHiqMeXsOjvFi-vwVRh-1">
          <mxGeometry y="360" width="200" height="40" as="geometry" />
        </mxCell>
        <mxCell id="xPHiqMeXsOjvFi-vwVRh-13" value="y&amp;nbsp;&lt;i&gt;number&lt;/i&gt;" style="text;html=1;strokeColor=none;fillColor=white;align=left;verticalAlign=middle;whiteSpace=wrap;rounded=0;" vertex="1" parent="xPHiqMeXsOjvFi-vwVRh-1">
          <mxGeometry y="400" width="200" height="40" as="geometry" />
        </mxCell>
        <mxCell id="xPHiqMeXsOjvFi-vwVRh-22" value="methods" style="swimlane;fontStyle=0;childLayout=stackLayout;horizontal=1;startSize=40;horizontalStack=0;resizeParent=1;resizeParentMax=0;resizeLast=0;collapsible=1;marginBottom=0;whiteSpace=wrap;html=1;rounded=0;" vertex="1" parent="xPHiqMeXsOjvFi-vwVRh-1">
          <mxGeometry y="440" width="200" height="120" as="geometry">
            <mxRectangle x="240" y="320" width="120" height="40" as="alternateBounds" />
          </mxGeometry>
        </mxCell>
        <mxCell id="xPHiqMeXsOjvFi-vwVRh-23" value="get: fetch: /api/seg/&lt;b&gt;filename&lt;/b&gt;" style="text;html=1;strokeColor=none;fillColor=white;align=left;verticalAlign=middle;whiteSpace=wrap;rounded=0;" vertex="1" parent="xPHiqMeXsOjvFi-vwVRh-22">
          <mxGeometry y="40" width="200" height="40" as="geometry" />
        </mxCell>
        <mxCell id="xPHiqMeXsOjvFi-vwVRh-32" value="manual create:&amp;nbsp;fetch: /api/user-seg/" style="text;html=1;strokeColor=none;fillColor=white;align=left;verticalAlign=middle;whiteSpace=wrap;rounded=0;" vertex="1" parent="xPHiqMeXsOjvFi-vwVRh-22">
          <mxGeometry y="80" width="200" height="40" as="geometry" />
        </mxCell>
        <mxCell id="xPHiqMeXsOjvFi-vwVRh-3" value="user" style="swimlane;fontStyle=0;childLayout=stackLayout;horizontal=1;startSize=40;horizontalStack=0;resizeParent=1;resizeParentMax=0;resizeLast=0;collapsible=1;marginBottom=0;whiteSpace=wrap;html=1;rounded=0;" vertex="1" parent="1">
          <mxGeometry y="320" width="200" height="120" as="geometry">
            <mxRectangle x="240" y="320" width="120" height="40" as="alternateBounds" />
          </mxGeometry>
        </mxCell>
        <mxCell id="xPHiqMeXsOjvFi-vwVRh-4" value="email &lt;i&gt;string&lt;/i&gt;" style="text;html=1;strokeColor=none;fillColor=white;align=left;verticalAlign=middle;whiteSpace=wrap;rounded=0;" vertex="1" parent="xPHiqMeXsOjvFi-vwVRh-3">
          <mxGeometry y="40" width="200" height="40" as="geometry" />
        </mxCell>
        <mxCell id="xPHiqMeXsOjvFi-vwVRh-14" value="hashed password &lt;i&gt;string&lt;/i&gt;" style="text;html=1;strokeColor=none;fillColor=white;align=left;verticalAlign=middle;whiteSpace=wrap;rounded=0;" vertex="1" parent="xPHiqMeXsOjvFi-vwVRh-3">
          <mxGeometry y="80" width="200" height="40" as="geometry" />
        </mxCell>
        <mxCell id="xPHiqMeXsOjvFi-vwVRh-15" value="audio" style="swimlane;fontStyle=0;childLayout=stackLayout;horizontal=1;startSize=40;horizontalStack=0;resizeParent=1;resizeParentMax=0;resizeLast=0;collapsible=1;marginBottom=0;whiteSpace=wrap;html=1;rounded=0;" vertex="1" parent="1">
          <mxGeometry x="240" y="320" width="200" height="240" as="geometry">
            <mxRectangle x="240" y="320" width="120" height="40" as="alternateBounds" />
          </mxGeometry>
        </mxCell>
        <mxCell id="xPHiqMeXsOjvFi-vwVRh-16" value="filename &lt;i&gt;string&lt;/i&gt;" style="text;html=1;strokeColor=none;fillColor=white;align=left;verticalAlign=middle;whiteSpace=wrap;rounded=0;" vertex="1" parent="xPHiqMeXsOjvFi-vwVRh-15">
          <mxGeometry y="40" width="200" height="40" as="geometry" />
        </mxCell>
        <mxCell id="xPHiqMeXsOjvFi-vwVRh-17" value="status&amp;nbsp;&lt;i&gt;string&lt;/i&gt;" style="text;html=1;strokeColor=none;fillColor=white;align=left;verticalAlign=middle;whiteSpace=wrap;rounded=0;" vertex="1" parent="xPHiqMeXsOjvFi-vwVRh-15">
          <mxGeometry y="80" width="200" height="40" as="geometry" />
        </mxCell>
        <mxCell id="xPHiqMeXsOjvFi-vwVRh-18" value="validation&amp;nbsp;&lt;i&gt;bool&lt;/i&gt;" style="text;html=1;strokeColor=none;fillColor=white;align=left;verticalAlign=middle;whiteSpace=wrap;rounded=0;" vertex="1" parent="xPHiqMeXsOjvFi-vwVRh-15">
          <mxGeometry y="120" width="200" height="40" as="geometry" />
        </mxCell>
        <mxCell id="xPHiqMeXsOjvFi-vwVRh-19" value="confidence&amp;nbsp;&lt;i&gt;number&lt;/i&gt;" style="text;html=1;strokeColor=none;fillColor=white;align=left;verticalAlign=middle;whiteSpace=wrap;rounded=0;" vertex="1" parent="xPHiqMeXsOjvFi-vwVRh-15">
          <mxGeometry y="160" width="200" height="40" as="geometry" />
        </mxCell>
        <mxCell id="xPHiqMeXsOjvFi-vwVRh-20" value="completion &lt;i&gt;number&lt;/i&gt;" style="text;html=1;strokeColor=none;fillColor=white;align=left;verticalAlign=middle;whiteSpace=wrap;rounded=0;" vertex="1" parent="xPHiqMeXsOjvFi-vwVRh-15">
          <mxGeometry y="200" width="200" height="40" as="geometry" />
        </mxCell>
        <mxCell id="xPHiqMeXsOjvFi-vwVRh-24" value="&lt;font style=&quot;font-size: 12px; font-weight: normal;&quot;&gt;&#39;segment&#39; in database called &#39;region&#39; in wavesurfer UI, could merge - e.g. region.data &amp;lt;-&amp;gt; segment.label - region has &#39;status: new&#39;&lt;/font&gt;" style="text;html=1;strokeColor=none;fillColor=none;align=left;verticalAlign=middle;whiteSpace=wrap;rounded=0;fontSize=16;fontFamily=Helvetica;fontStyle=1;fontColor=#4D4D4D;" vertex="1" parent="1">
          <mxGeometry x="1680" y="180" width="373" height="30" as="geometry" />
        </mxCell>
        <mxCell id="xPHiqMeXsOjvFi-vwVRh-25" value="to fix" style="text;html=1;strokeColor=none;fillColor=none;align=left;verticalAlign=middle;whiteSpace=wrap;rounded=0;fontSize=16;fontFamily=Helvetica;fontStyle=1;fontColor=#4D4D4D;" vertex="1" parent="1">
          <mxGeometry x="1679.9999999999998" y="80" width="200" height="30" as="geometry" />
        </mxCell>
        <mxCell id="xPHiqMeXsOjvFi-vwVRh-26" value="last fixed" style="text;html=1;strokeColor=none;fillColor=none;align=left;verticalAlign=middle;whiteSpace=wrap;rounded=0;fontSize=16;fontFamily=Helvetica;fontStyle=1;fontColor=#4D4D4D;" vertex="1" parent="1">
          <mxGeometry x="826.9999999999998" y="320" width="200" height="30" as="geometry" />
        </mxCell>
        <mxCell id="xPHiqMeXsOjvFi-vwVRh-27" value="&lt;font style=&quot;font-size: 12px; font-weight: normal;&quot;&gt;region creation by double click consistent naming&lt;br&gt;altkey now also deletes regions like ctrl&lt;br&gt;&lt;/font&gt;" style="text;html=1;strokeColor=none;fillColor=none;align=left;verticalAlign=middle;whiteSpace=wrap;rounded=0;fontSize=16;fontFamily=Helvetica;fontStyle=1;fontColor=#4D4D4D;" vertex="1" parent="1">
          <mxGeometry x="827" y="360" width="413" height="70" as="geometry" />
        </mxCell>
        <mxCell id="xPHiqMeXsOjvFi-vwVRh-28" value="&lt;font style=&quot;font-size: 12px; font-weight: normal;&quot;&gt;filename and error on region/segment creation by double click&lt;/font&gt;" style="text;html=1;strokeColor=none;fillColor=none;align=left;verticalAlign=middle;whiteSpace=wrap;rounded=0;fontSize=16;fontFamily=Helvetica;fontStyle=1;fontColor=#4D4D4D;" vertex="1" parent="1">
          <mxGeometry x="1267" y="360" width="373" height="30" as="geometry" />
        </mxCell>
        <mxCell id="xPHiqMeXsOjvFi-vwVRh-29" value="logs" style="text;html=1;strokeColor=none;fillColor=none;align=left;verticalAlign=middle;whiteSpace=wrap;rounded=0;fontSize=16;fontFamily=Helvetica;fontStyle=1;fontColor=#4D4D4D;" vertex="1" parent="1">
          <mxGeometry x="1266.9999999999998" y="320" width="200" height="30" as="geometry" />
        </mxCell>
        <mxCell id="xPHiqMeXsOjvFi-vwVRh-33" value="&lt;font style=&quot;font-weight: normal; font-size: 12px;&quot;&gt;what does &#39;formatDuration&#39; function do&lt;/font&gt;" style="text;html=1;strokeColor=none;fillColor=none;align=left;verticalAlign=middle;whiteSpace=wrap;rounded=0;fontSize=16;fontFamily=Helvetica;fontStyle=1;fontColor=#4D4D4D;" vertex="1" parent="1">
          <mxGeometry x="2160" y="170" width="373" height="30" as="geometry" />
        </mxCell>
        <mxCell id="xPHiqMeXsOjvFi-vwVRh-34" value="&lt;font style=&quot;font-size: 12px; font-weight: normal;&quot;&gt;warning &#39;value&#39; prop on &#39;select&#39; should not be null sometimes on region selection&lt;/font&gt;" style="text;html=1;strokeColor=none;fillColor=none;align=left;verticalAlign=middle;whiteSpace=wrap;rounded=0;fontSize=16;fontFamily=Helvetica;fontStyle=1;fontColor=#4D4D4D;" vertex="1" parent="1">
          <mxGeometry x="3080" y="170" width="453" height="30" as="geometry" />
        </mxCell>
        <mxCell id="xPHiqMeXsOjvFi-vwVRh-36" value="&lt;font style=&quot;font-size: 12px; font-weight: normal;&quot;&gt;why does waveform ui refresh check if regions have confidence before loading them&lt;/font&gt;" style="text;html=1;strokeColor=none;fillColor=none;align=left;verticalAlign=middle;whiteSpace=wrap;rounded=0;fontSize=16;fontFamily=Helvetica;fontStyle=1;fontColor=#4D4D4D;" vertex="1" parent="1">
          <mxGeometry x="2160" y="210" width="413" height="30" as="geometry" />
        </mxCell>
        <mxCell id="xPHiqMeXsOjvFi-vwVRh-38" value="&lt;span style=&quot;font-weight: normal;&quot;&gt;&lt;font style=&quot;font-size: 12px;&quot;&gt;updates regions more frequently than necessary e.g. on region selection&lt;/font&gt;&lt;/span&gt;" style="text;html=1;strokeColor=none;fillColor=none;align=left;verticalAlign=middle;whiteSpace=wrap;rounded=0;fontSize=16;fontFamily=Helvetica;fontStyle=1;fontColor=#4D4D4D;" vertex="1" parent="1">
          <mxGeometry x="2160" y="250" width="413" height="30" as="geometry" />
        </mxCell>
        <mxCell id="xPHiqMeXsOjvFi-vwVRh-39" value="&lt;span style=&quot;font-weight: normal;&quot;&gt;&lt;font style=&quot;font-size: 12px;&quot;&gt;reload and gridFalse state in waveform.js are unneeded&lt;/font&gt;&lt;/span&gt;" style="text;html=1;strokeColor=none;fillColor=none;align=left;verticalAlign=middle;whiteSpace=wrap;rounded=0;fontSize=16;fontFamily=Helvetica;fontStyle=1;fontColor=#4D4D4D;" vertex="1" parent="1">
          <mxGeometry x="2160" y="290" width="413" height="30" as="geometry" />
        </mxCell>
        <mxCell id="xPHiqMeXsOjvFi-vwVRh-41" value="&lt;span style=&quot;font-weight: normal;&quot;&gt;&lt;font style=&quot;font-size: 12px;&quot;&gt;after deleting a segment, the dropdown to select a label remains&lt;/font&gt;&lt;/span&gt;" style="text;html=1;strokeColor=none;fillColor=none;align=left;verticalAlign=middle;whiteSpace=wrap;rounded=0;fontSize=16;fontFamily=Helvetica;fontStyle=1;fontColor=#4D4D4D;" vertex="1" parent="1">
          <mxGeometry x="2600" y="170" width="413" height="30" as="geometry" />
        </mxCell>
        <mxCell id="xPHiqMeXsOjvFi-vwVRh-42" value="&lt;font style=&quot;font-size: 12px; font-weight: normal;&quot;&gt;updated region/segment&lt;/font&gt;" style="text;html=1;strokeColor=none;fillColor=none;align=left;verticalAlign=middle;whiteSpace=wrap;rounded=0;fontSize=16;fontFamily=Helvetica;fontStyle=1;fontColor=#4D4D4D;" vertex="1" parent="1">
          <mxGeometry x="1267" y="390" width="200" height="30" as="geometry" />
        </mxCell>
        <mxCell id="xPHiqMeXsOjvFi-vwVRh-43" value="refactors" style="text;html=1;strokeColor=none;fillColor=none;align=left;verticalAlign=middle;whiteSpace=wrap;rounded=0;fontSize=16;fontFamily=Helvetica;fontStyle=1;fontColor=#4D4D4D;" vertex="1" parent="1">
          <mxGeometry x="1680" y="120" width="200" height="30" as="geometry" />
        </mxCell>
        <mxCell id="xPHiqMeXsOjvFi-vwVRh-44" value="optimisation" style="text;html=1;strokeColor=none;fillColor=none;align=left;verticalAlign=middle;whiteSpace=wrap;rounded=0;fontSize=16;fontFamily=Helvetica;fontStyle=1;fontColor=#4D4D4D;" vertex="1" parent="1">
          <mxGeometry x="2160" y="120" width="200" height="30" as="geometry" />
        </mxCell>
        <mxCell id="xPHiqMeXsOjvFi-vwVRh-45" value="visuals / ui" style="text;html=1;strokeColor=none;fillColor=none;align=left;verticalAlign=middle;whiteSpace=wrap;rounded=0;fontSize=16;fontFamily=Helvetica;fontStyle=1;fontColor=#4D4D4D;" vertex="1" parent="1">
          <mxGeometry x="2600" y="120" width="200" height="30" as="geometry" />
        </mxCell>
        <mxCell id="xPHiqMeXsOjvFi-vwVRh-47" value="errors" style="text;html=1;strokeColor=none;fillColor=none;align=left;verticalAlign=middle;whiteSpace=wrap;rounded=0;fontSize=16;fontFamily=Helvetica;fontStyle=1;fontColor=#4D4D4D;" vertex="1" parent="1">
          <mxGeometry x="3080" y="120" width="200" height="30" as="geometry" />
        </mxCell>
      </root>
    </mxGraphModel>
  </diagram>
</mxfile>
